<svg width="768" height="768" viewBox="0 0 768 768" fill="none" xmlns="http://www.w3.org/2000/svg">
  <circle cx="384" cy="384" r="384" fill="#000000"/>
  <g transform="translate(384, 384)">
    <rect x="-80" y="-240" width="50" height="120" fill="#FFFFFF" transform="rotate(-80 0 0)"/>
    <rect x="-80" y="-240" width="50" height="120" fill="#FFFFFF" transform="rotate(-60 0 0)"/>
    <rect x="-80" y="-240" width="50" height="120" fill="#FFFFFF" transform="rotate(-40 0 0)"/>
    <rect x="-80" y="-240" width="50" height="120" fill="#FFFFFF" transform="rotate(-20 0 0)"/>
    <rect x="-80" y="-240" width="50" height="120" fill="#FFFFFF" transform="rotate(0 0 0)"/>
    <rect x="-80" y="-240" width="50" height="120" fill="#FFFFFF" transform="rotate(20 0 0)"/>
    <rect x="-80" y="-240" width="50" height="120" fill="#FFFFFF" transform="rotate(40 0 0)"/>
    <rect x="-80" y="-240" width="50" height="120" fill="#FFFFFF" transform="rotate(60 0 0)"/>
    <rect x="-80" y="-240" width="50" height="120" fill="#FFFFFF" transform="rotate(80 0 0)"/>
    <rect x="-80" y="-240" width="50" height="120" fill="#FFFFFF" transform="rotate(100 0 0)"/>
    <rect x="-80" y="-240" width="50" height="120" fill="#FFFFFF" transform="rotate(120 0 0)"/>
    <rect x="-80" y="-240" width="50" height="120" fill="#FFFFFF" transform="rotate(140 0 0)"/>
    <rect x="-80" y="-240" width="50" height="120" fill="#FFFFFF" transform="rotate(160 0 0)"/>
    <rect x="-80" y="-240" width="50" height="120" fill="#FFFFFF" transform="rotate(180 0 0)"/>
    <rect x="-80" y="-240" width="50" height="120" fill="#FFFFFF" transform="rotate(200 0 0)"/>
    <rect x="-80" y="-240" width="50" height="120" fill="#FFFFFF" transform="rotate(220 0 0)"/>
    <rect x="-80" y="-240" width="50" height="120" fill="#FFFFFF" transform="rotate(240 0 0)"/>
    <rect x="-80" y="-240" width="50" height="120" fill="#FFFFFF" transform="rotate(260 0 0)"/>
    <rect x="-80" y="-240" width="50" height="120" fill="#FFFFFF" transform="rotate(280 0 0)"/>
    <rect x="-80" y="-240" width="50" height="120" fill="#FFFFFF" transform="rotate(300 0 0)"/>
    <rect x="-80" y="-240" width="50" height="120" fill="#FFFFFF" transform="rotate(320 0 0)"/>
    <rect x="-80" y="-240" width="50" height="120" fill="#FFFFFF" transform="rotate(340 0 0)"/>
    <circle cx="0" cy="0" r="150" fill="#000000"/>
  </g>
</svg>
